<svg width="512" height="512" viewBox="0 0 512 512" fill="none" xmlns="http://www.w3.org/2000/svg">
  <g id="Group 61">
    <g id="Group 60">
      <g id="Vector 2">
        <path
          d="M360.399 238.861C359.945 239.066 359.562 239.3 359.235 239.53C358.553 240.011 358.319 241.66 358.82 242.327C363.132 248.061 365.076 252.201 366.579 260.017C366.598 260.12 366.602 260.229 366.589 260.333C365.518 268.827 365.187 273.53 365.217 281.739C365.193 282.699 365.176 283.625 365.167 284.522L368.004 283.41L370.106 282.587L372.182 281.774L374.754 280.766C374.606 280.214 374.452 279.649 374.292 279.07C374.271 278.994 374.26 278.916 374.257 278.838C373.982 271.298 373.541 267.104 370.817 260.261C370.795 260.204 370.776 260.143 370.764 260.082C368.896 250.729 366.906 245.947 361.479 239.149C361.219 238.824 360.778 238.69 360.399 238.861Z"
          fill="#FF6700" />
        <path
          d="M379.131 308.174C378.735 298.901 378.046 292.992 374.754 280.766M368.696 312.348C366.05 301.363 365.067 294.813 365.167 284.522M368 283.131C368.172 294.913 369.083 301.074 371.478 311.652M370.087 282.435C371.541 293.988 372.757 299.935 374.957 310.261M372.174 281.739C374.795 293.518 375.927 299.64 377.739 310.261M365.167 284.522C365.176 283.625 365.193 282.699 365.217 281.739C365.187 273.53 365.518 268.827 366.589 260.333C366.602 260.229 366.598 260.12 366.579 260.017C365.076 252.201 363.132 248.061 358.82 242.327C358.319 241.66 358.553 240.011 359.235 239.53C359.562 239.3 359.945 239.066 360.399 238.861C360.778 238.69 361.219 238.824 361.479 239.149C366.906 245.947 368.896 250.729 370.764 260.082C370.776 260.143 370.795 260.204 370.817 260.261C373.541 267.104 373.982 271.298 374.257 278.838C374.26 278.916 374.271 278.994 374.292 279.07C374.452 279.649 374.606 280.214 374.754 280.766M365.167 284.522L374.754 280.766"
          stroke="#FF6700" />
      </g>
      <path id="Vector 3"
        d="M230.957 297.739L187.454 275.988C186.914 275.718 186.258 275.989 186.061 276.56C180.038 293.992 176.899 304.86 173.397 326.535C173.301 327.125 173.758 327.674 174.355 327.71C202.811 329.4 209.965 348.905 222.672 381.674C222.951 382.393 223.922 382.532 224.405 381.931C263.933 332.703 287.801 316.772 334.512 342.139C335.176 342.499 336.014 342.031 336.024 341.275C336.453 310.179 335.623 292.196 326.607 262.02C326.429 261.424 325.753 261.126 325.198 261.406L256 296.348C246.421 302.502 240.928 302.941 230.957 297.739Z"
        fill="#FF6700" stroke="#FF6700" />
      <path id="Vector 1"
        d="M424.274 192.273L253.107 128.734C251.843 128.265 250.443 128.326 249.225 128.903L85.6256 206.466C81.8902 208.237 81.7954 213.519 85.4649 215.423L240.465 295.841C241.917 296.594 243.646 296.59 245.094 295.829L424.86 201.387C428.69 199.375 428.33 193.779 424.274 192.273Z"
        fill="#f7d82a" />
    </g>
    <circle id="Ellipse 1" cx="256" cy="256" r="242.5" stroke="#FF6700" stroke-width="27" />
  </g>
</svg>
